# xmcd
#
# Track frame offsets:
#	150
#	17884
#	33351
#	42546
#	57930
#	80976
#	103687
#	124563
#	137544
#	146788
#
# Disc length: 2379 seconds
#
# Revision: 2
# Processed by: cddbd v1.5.2PL0 Copyright (c) Steve Scherf et al.
# Submitted via: EZCDAudioConverter 8.5.0.1
#
DISCID=8e09490a
DTITLE=Northern Indians - Arvet and drömmarna
DYEAR=2019
DGENRE=Americana - Roots
TTITLE0=Northern Indians
TTITLE1=Blå himmel
TTITLE2=Gösta
TTITLE3=Ner i jorden
TTITLE4=Slit and släng
TTITLE5=Modern Times
TTITLE6=Lost and Found
TTITLE7=Lifeboat
TTITLE8=Silver Lining
TTITLE9=Animal Rights
EXTD=
EXTT0=
EXTT1=
EXTT2=
EXTT3=
EXTT4=
EXTT5=
EXTT6=
EXTT7=
EXTT8=
EXTT9=
PLAYORDER=
